<svg width="38" height="208" viewBox="0 0 38 208" fill="none" xmlns="http://www.w3.org/2000/svg">
<rect width="38" height="208" fill="url(#paint0_linear_859_19)"/>
<path d="M19 39V131" stroke="white"/>
<path d="M21.7781 149.644C22.4964 149.644 22.9506 149.253 22.9506 148.25L22.9506 145.577L22.7922 145.746L20.764 145.746L20.595 145.577L20.595 148.25C20.595 149.253 21.0915 149.644 21.7781 149.644ZM21.7781 151.472C20.2147 151.472 18.9894 150.278 18.9894 148.25L18.9894 145.577L18.831 145.746L16 145.746L16 143.951L24.5562 143.951L24.5562 148.25C24.5562 150.278 23.4049 151.472 21.7781 151.472ZM17.6056 159.972L16 159.972L16 152.894L24.5562 152.894L24.5562 159.972L22.9506 159.972L22.9506 154.521L22.7816 154.69L21.2499 154.69L21.0809 154.521L21.0809 159.465L19.4753 159.465L19.4753 154.521L19.3063 154.69L17.7746 154.69L17.6056 154.521L17.6056 159.972ZM24.5562 170.853L15.9894 170.853L15.9894 169.057L20.9119 169.057L20.9119 169.036L20.0035 168.656L15.8838 166.279L15.8838 166.237L20.0035 163.86L20.9014 163.48L20.9014 163.458L15.9894 163.458L15.9894 161.663L24.5562 161.663L24.5562 163.142L19.8133 165.877L18.9155 166.247L18.9155 166.268L19.8133 166.627L24.5562 169.374L24.5562 170.853ZM19.5387 175.53L19.5387 178.213L19.7077 178.034L21.5668 177.146L22.3485 176.882L22.338 176.861L21.5668 176.597L19.7077 175.71L19.5387 175.53ZM24.5562 177.664L16 181.773L16 179.808L17.8803 178.91L18.0387 179.016L18.0387 174.717L17.8803 174.823L16 173.935L16 171.96L24.5562 176.08L24.5562 177.664ZM24.5562 184.731L16 184.731L16 182.935L24.5562 182.935L24.5562 184.731ZM24.5562 194.505L16 194.505L16 192.995L20.7112 189.139L21.7147 188.505L21.7147 188.484L16 188.484L16 186.689L24.5562 186.689L24.5562 188.199L19.845 192.097L18.8732 192.689L18.8732 192.71L24.5562 192.71L24.5562 194.505Z" fill="white"/>
<defs>
<linearGradient id="paint0_linear_859_19" x1="19" y1="0" x2="19" y2="208" gradientUnits="userSpaceOnUse">
<stop stop-color="#00009C"/>
<stop offset="1" stop-color="#141B34"/>
</linearGradient>
</defs>
</svg>
