<svg width="33" height="32" viewBox="0 0 33 32" fill="none" xmlns="http://www.w3.org/2000/svg">
<path d="M15.3772 12.1238V10.0438C14.6911 10.1592 14.0355 10.412 13.4496 10.787C12.8636 11.162 12.3595 11.6515 11.9673 12.2261L13.8854 13.3769L15.3772 12.1238Z" fill="#767676"/>
<path d="M12.8196 14.7157L11.2852 13.795C11.1719 14.2147 11.1146 14.6476 11.1147 15.0823C11.1156 16.2447 11.5125 17.3722 12.2399 18.279L13.4675 16.7872L12.8622 14.9714C12.8361 14.8886 12.8218 14.8025 12.8196 14.7157Z" fill="#767676"/>
<path d="M15.1386 16.3604H17.3209L17.7983 14.9368L16.2297 13.6326L14.6612 14.9368L15.1386 16.3604Z" fill="#767676"/>
<path d="M20.4918 12.2261C20.0997 11.6515 19.5955 11.162 19.0096 10.787C18.4237 10.412 17.768 10.1592 17.082 10.0438V12.1238L18.5738 13.3769L20.4918 12.2261Z" fill="#767676"/>
<path d="M23.0492 4.00017H9.40984C8.5055 4.00017 7.63819 4.35942 6.99872 4.99889C6.35925 5.63836 6 6.50567 6 7.41001V18.3641C6.00361 19.586 6.33543 20.7845 6.96078 21.8342C7.58612 22.884 8.48201 23.7464 9.55476 24.3314L15.8204 27.7412C15.9499 27.816 16.0969 27.8554 16.2466 27.8554C16.3962 27.8554 16.5432 27.816 16.6728 27.7412L22.9384 24.3314C24.0112 23.7464 24.907 22.884 25.5324 21.8342C26.1577 20.7845 26.4896 19.586 26.4932 18.3641V7.41001C26.4932 6.95934 26.4039 6.51314 26.2304 6.0972C26.0569 5.68126 25.8027 5.30384 25.4824 4.98675C25.1622 4.66967 24.7822 4.41922 24.3646 4.24988C23.9469 4.08053 23.4999 3.99566 23.0492 4.00017ZM16.2295 21.9019C14.8807 21.9019 13.5622 21.5019 12.4407 20.7525C11.3192 20.0032 10.4451 18.9381 9.92896 17.6919C9.4128 16.4458 9.27774 15.0746 9.54088 13.7517C9.80402 12.4288 10.4535 11.2137 11.4073 10.2599C12.361 9.30617 13.5762 8.65665 14.8991 8.39351C16.222 8.13037 17.5932 8.26543 18.8393 8.78159C20.0855 9.29776 21.1505 10.1719 21.8999 11.2933C22.6493 12.4148 23.0492 13.7334 23.0492 15.0822C23.0492 16.8909 22.3307 18.6255 21.0518 19.9044C19.7728 21.1834 18.0382 21.9019 16.2295 21.9019Z" fill="#767676"/>
<path d="M19.6394 14.9288L18.9915 16.7872L20.2191 18.3216C20.9557 17.4035 21.3532 16.2594 21.3443 15.0823C21.3444 14.6476 21.2871 14.2147 21.1738 13.795L19.6394 14.7157C19.6476 14.7865 19.6476 14.858 19.6394 14.9288Z" fill="#767676"/>
<path d="M14.5932 18.0657L13.5191 19.4126C14.332 19.9206 15.2713 20.19 16.2299 20.19C17.1885 20.19 18.1279 19.9206 18.9408 19.4126L17.8667 18.0657H14.5932Z" fill="#767676"/>
</svg>
